<svg xmlns="http://www.w3.org/2000/svg" xmlns:xlink="http://www.w3.org/1999/xlink" width="500" zoomAndPan="magnify" viewBox="0 0 375 374.999991" height="500" preserveAspectRatio="xMidYMid meet" version="1.0"><defs><g/><clipPath id="01aa0190ff"><path d="M 60 0 L 315 0 C 330.914062 0 346.175781 6.320312 357.425781 17.574219 C 368.679688 28.824219 375 44.085938 375 60 L 375 315 C 375 330.914062 368.679688 346.175781 357.425781 357.425781 C 346.175781 368.679688 330.914062 375 315 375 L 60 375 C 44.085938 375 28.824219 368.679688 17.574219 357.425781 C 6.320312 346.175781 0 330.914062 0 315 L 0 60 C 0 44.085938 6.320312 28.824219 17.574219 17.574219 C 28.824219 6.320312 44.085938 0 60 0 Z M 60 0 " clip-rule="nonzero"/></clipPath><clipPath id="b274bbe754"><path d="M 0 0 L 375 0 L 375 375 L 0 375 Z M 0 0 " clip-rule="nonzero"/></clipPath><clipPath id="2adf475a83"><path d="M 60 0 L 315 0 C 330.914062 0 346.175781 6.320312 357.425781 17.574219 C 368.679688 28.824219 375 44.085938 375 60 L 375 315 C 375 330.914062 368.679688 346.175781 357.425781 357.425781 C 346.175781 368.679688 330.914062 375 315 375 L 60 375 C 44.085938 375 28.824219 368.679688 17.574219 357.425781 C 6.320312 346.175781 0 330.914062 0 315 L 0 60 C 0 44.085938 6.320312 28.824219 17.574219 17.574219 C 28.824219 6.320312 44.085938 0 60 0 Z M 60 0 " clip-rule="nonzero"/></clipPath><clipPath id="5347de2827"><rect x="0" width="375" y="0" height="375"/></clipPath><clipPath id="c89d0d1d89"><rect x="0" width="232" y="0" height="344"/></clipPath></defs><g clip-path="url(#01aa0190ff)"><g transform="matrix(1, 0, 0, 1, 0, 0)"><g clip-path="url(#5347de2827)"><g clip-path="url(#b274bbe754)"><g clip-path="url(#2adf475a83)"><rect x="-82.5" width="540" fill="#000000" height="539.999987" y="-82.499998" fill-opacity="1"/></g></g></g></g></g><g transform="matrix(1, 0, 0, 1, 72, 15)"><g clip-path="url(#c89d0d1d89)"><g fill="#ffffff" fill-opacity="1"><g transform="translate(0.65926, 269.246594)"><g><path d="M 101.890625 -189.984375 L 127.78125 -189.984375 C 133.226562 -189.984375 138.390625 -189.65625 143.265625 -189 C 148.140625 -188.34375 152.738281 -187.453125 157.0625 -186.328125 L 170.859375 -209.40625 L 194.78125 -209.40625 L 176.203125 -178.453125 C 188.398438 -171.316406 197.6875 -160.757812 204.0625 -146.78125 C 210.445312 -132.800781 213.640625 -115.398438 213.640625 -94.578125 C 213.640625 -62.859375 206.269531 -39.164062 191.53125 -23.5 C 176.800781 -7.832031 155.550781 0 127.78125 0 L 101.890625 0 C 91.191406 0 81.4375 -1.125 72.625 -3.375 L 59.109375 19.421875 L 34.90625 19.421875 L 53.203125 -11.265625 C 28.429688 -25.710938 16.046875 -53.484375 16.046875 -94.578125 C 16.046875 -126.472656 23.457031 -150.347656 38.28125 -166.203125 C 53.101562 -182.054688 74.304688 -189.984375 101.890625 -189.984375 Z M 127.78125 -156.78125 L 101.890625 -156.78125 C 83.691406 -156.78125 70.367188 -151.851562 61.921875 -142 C 53.472656 -132.144531 49.25 -116.335938 49.25 -94.578125 C 49.25 -66.804688 56.289062 -48.695312 70.375 -40.25 L 139.046875 -155.9375 C 135.671875 -156.5 131.914062 -156.78125 127.78125 -156.78125 Z M 180.140625 -94.859375 C 180.140625 -122.441406 173.101562 -140.640625 159.03125 -149.453125 L 90.640625 -33.78125 C 92.328125 -33.59375 94.109375 -33.453125 95.984375 -33.359375 C 97.859375 -33.265625 99.828125 -33.21875 101.890625 -33.21875 L 127.78125 -33.21875 C 146.175781 -33.21875 159.5 -38.046875 167.75 -47.703125 C 176.007812 -57.367188 180.140625 -73.085938 180.140625 -94.859375 Z M 180.140625 -94.859375 "/></g></g></g></g></g></svg>