<svg xmlns="http://www.w3.org/2000/svg" xmlns:xlink="http://www.w3.org/1999/xlink" width="500" zoomAndPan="magnify" viewBox="0 0 375 137.249994" height="183" preserveAspectRatio="xMidYMid meet" version="1.0"><defs><g/><clipPath id="083f2393e1"><path d="M 1.019531 0 L 373.980469 0 L 373.980469 136.503906 L 1.019531 136.503906 Z M 1.019531 0 " clip-rule="nonzero"/></clipPath><clipPath id="6fbf0ddd6c"><path d="M 0.0195312 0 L 120 0 L 120 136.503906 L 0.0195312 136.503906 Z M 0.0195312 0 " clip-rule="nonzero"/></clipPath><clipPath id="1036875e93"><path d="M 246 11 L 372.980469 11 L 372.980469 126 L 246 126 Z M 246 11 " clip-rule="nonzero"/></clipPath><clipPath id="02a22b2f3c"><rect x="0" width="373" y="0" height="137"/></clipPath></defs><g clip-path="url(#083f2393e1)"><g transform="matrix(1, 0, 0, 1, 1, -0.000000000000003064)"><g clip-path="url(#02a22b2f3c)"><g clip-path="url(#6fbf0ddd6c)"><g fill="#ffffff" fill-opacity="1"><g transform="translate(-9.116194, 125.237806)"><g><path d="M 61.25 -114.203125 L 76.8125 -114.203125 C 80.082031 -114.203125 83.179688 -114.003906 86.109375 -113.609375 C 89.046875 -113.210938 91.8125 -112.675781 94.40625 -112 L 102.703125 -125.875 L 117.078125 -125.875 L 105.90625 -107.265625 C 113.238281 -102.972656 118.820312 -96.625 122.65625 -88.21875 C 126.488281 -79.820312 128.40625 -69.363281 128.40625 -56.84375 C 128.40625 -37.78125 123.976562 -23.539062 115.125 -14.125 C 106.269531 -4.707031 93.5 0 76.8125 0 L 61.25 0 C 54.820312 0 48.957031 -0.675781 43.65625 -2.03125 L 35.53125 11.671875 L 20.984375 11.671875 L 31.96875 -6.765625 C 17.082031 -15.453125 9.640625 -32.144531 9.640625 -56.84375 C 9.640625 -76.019531 14.09375 -90.375 23 -99.90625 C 31.914062 -109.4375 44.664062 -114.203125 61.25 -114.203125 Z M 76.8125 -94.234375 L 61.25 -94.234375 C 50.300781 -94.234375 42.289062 -91.269531 37.21875 -85.34375 C 32.144531 -79.425781 29.609375 -69.925781 29.609375 -56.84375 C 29.609375 -40.15625 33.835938 -29.269531 42.296875 -24.1875 L 83.578125 -93.734375 C 81.546875 -94.066406 79.289062 -94.234375 76.8125 -94.234375 Z M 108.28125 -57.015625 C 108.28125 -73.597656 104.050781 -84.539062 95.59375 -89.84375 L 54.484375 -20.296875 C 55.492188 -20.191406 56.5625 -20.109375 57.6875 -20.046875 C 58.820312 -19.992188 60.007812 -19.96875 61.25 -19.96875 L 76.8125 -19.96875 C 87.863281 -19.96875 95.867188 -22.867188 100.828125 -28.671875 C 105.796875 -34.484375 108.28125 -43.929688 108.28125 -57.015625 Z M 108.28125 -57.015625 "/></g></g></g></g><g fill="#ffffff" fill-opacity="1"><g transform="translate(128.939252, 125.237806)"><g><path d="M 44.15625 -114.203125 L 102.015625 -114.203125 L 102.015625 -94.234375 L 43.484375 -94.234375 C 38.296875 -94.234375 34.515625 -92.960938 32.140625 -90.421875 C 29.773438 -87.890625 28.59375 -84.648438 28.59375 -80.703125 C 28.59375 -77.203125 29.75 -74.070312 32.0625 -71.3125 C 34.375 -68.550781 38.859375 -67.171875 45.515625 -67.171875 L 72.25 -67.171875 C 80.03125 -67.171875 86.425781 -66.210938 91.4375 -64.296875 C 96.457031 -62.378906 100.347656 -59.785156 103.109375 -56.515625 C 105.878906 -53.242188 107.828125 -49.601562 108.953125 -45.59375 C 110.085938 -41.59375 110.65625 -37.5625 110.65625 -33.5 C 110.65625 -27.070312 109.441406 -21.347656 107.015625 -16.328125 C 104.585938 -11.304688 100.691406 -7.328125 95.328125 -4.390625 C 89.972656 -1.460938 82.953125 0 74.265625 0 L 10.65625 0 L 10.65625 -19.96875 L 74.953125 -19.96875 C 80.367188 -19.96875 84.34375 -21.289062 86.875 -23.9375 C 89.414062 -26.59375 90.6875 -30.003906 90.6875 -34.171875 C 90.6875 -37.898438 89.441406 -41.203125 86.953125 -44.078125 C 84.472656 -46.953125 79.738281 -48.390625 72.75 -48.390625 L 46.1875 -48.390625 C 38.632812 -48.390625 32.40625 -49.347656 27.5 -51.265625 C 22.59375 -53.179688 18.753906 -55.742188 15.984375 -58.953125 C 13.222656 -62.171875 11.304688 -65.722656 10.234375 -69.609375 C 9.160156 -73.503906 8.625 -77.425781 8.625 -81.375 C 8.625 -87.695312 9.835938 -93.335938 12.265625 -98.296875 C 14.691406 -103.265625 18.5 -107.15625 23.6875 -109.96875 C 28.875 -112.789062 35.695312 -114.203125 44.15625 -114.203125 Z M 44.15625 -114.203125 "/></g></g></g><g clip-path="url(#1036875e93)"><g fill="#ffffff" fill-opacity="1"><g transform="translate(242.970326, 125.237806)"><g><path d="M 7.953125 -114.203125 L 32.3125 -114.203125 L 67.34375 -72.078125 L 104.046875 -114.203125 L 128.75 -114.203125 L 79.859375 -58.03125 L 129.09375 0 L 104.734375 0 L 66.828125 -45.34375 L 27.921875 0 L 3.21875 0 L 54.3125 -59.546875 Z M 7.953125 -114.203125 "/></g></g></g></g></g></g></g></svg>